<svg width="393" height="120" viewBox="0 0 393 120" fill="none" xmlns="http://www.w3.org/2000/svg">
<g clip-path="url(#clip0_77_3968)">
<path fill-rule="evenodd" clip-rule="evenodd" d="M321.511 25.7522L321.49 25.7405C324.358 22.6845 327.534 19.4388 330.86 16.3162C326.814 14.3911 323.076 12.209 319.461 10.0981C311.624 5.52401 304.359 1.284 295.764 0.716583C289.095 0.313863 282.421 1.3905 276.242 3.86564C276.242 3.86564 272.9 -0.560974 262.61 0.873473C252.32 2.30792 220.624 15.2292 193.612 57.3662C169.195 95.4575 180.668 117.299 198.205 117.064C217.211 116.806 235.288 96.1859 241.421 79.1855C247.552 62.1848 240.318 57.5789 234.759 58.016C228.617 58.5203 217.761 63.8546 211.791 75.644C205.818 87.4334 205.818 94.6952 205.818 94.6952C208.259 92.1965 210.915 89.906 213.755 87.848C216.31 85.9004 219.126 84.3017 222.127 83.0966C222.828 80.0504 223.873 77.0888 225.238 74.2658C227.399 69.8726 230.821 65.3003 235.045 64.2695C243.626 62.1737 239.515 77.4371 233.21 87.3887C229.822 92.7005 217.798 108.065 207.471 108.065C197.148 108.065 195.174 98.36 197.345 89.249C199.515 80.138 202.534 68.6174 217.626 47.6387C232.715 26.6599 249.034 14.2206 258.487 9.0095C268.19 3.64151 272.14 5.99489 272.14 5.99489C272.14 5.99489 259.751 13.4137 252.698 22.379C245.968 30.941 241.938 40.5674 245.062 45.2852C248.047 49.7792 258.533 49.8689 270.096 33.5969C281.511 17.5265 278.643 7.96727 278.643 7.96727C279.393 7.72883 280.161 7.5416 280.939 7.40693C286.507 6.6785 290.965 8.12417 297.854 11.5758C301.214 13.2597 304.513 15.4165 308.036 17.7201C312.079 20.3643 316.42 23.2025 321.49 25.7405L321.477 25.7522H321.511ZM274.735 9.21122C274.735 9.21122 267.387 12.0689 258.841 21.2583C250.297 30.4478 245.314 40.7915 249 43.526C250.414 44.5682 253.673 44.7473 259.6 39.5474C265.063 34.9166 269.352 29.1129 272.128 22.5919C275.734 14.0121 274.858 9.80585 274.747 9.26861C274.741 9.23606 274.735 9.21698 274.735 9.21122Z" fill="#EB2323"/>
<path d="M336.4 30.9573L336.397 30.963C356.469 34.8405 374.051 22.7038 383.4 12.3713C386.813 8.67369 389.746 4.5828 392.141 0.189697C387.883 4.51494 383.117 8.33651 377.946 11.5756L377.888 11.5644C369.185 17.0108 357.136 21.953 345.561 20.8659C342.631 23.8245 339.496 27.2425 336.372 30.9519L336.4 30.9573Z" fill="#EB2323"/>
<path fill-rule="evenodd" clip-rule="evenodd" d="M343.472 100.579C341.806 103.179 339.912 108.166 345.412 105.061C352.108 101.285 361.651 87.1309 361.651 87.1309H365.97C362.035 93.0457 357.651 98.6647 352.855 103.941C346.067 111.281 337.787 117.949 331.952 117.288C325.143 116.514 327.279 107.785 327.279 107.785C327.279 107.785 317.494 117.87 310.776 117.187C301.667 116.201 304.446 105.218 304.446 105.218C304.446 105.218 294.11 117.546 287.128 117.176C276.125 116.559 278.895 103.459 281.948 94.2919C283.593 89.3722 285.109 85.5058 285.109 85.5058C285.109 85.5058 284.017 85.786 281.662 86.1223C280.432 86.2903 278.216 86.4136 278.216 86.4136C275.692 90.7585 272.94 94.9741 269.97 99.0433C266.309 103.795 250.747 120.123 241.557 116.851C233.085 113.825 235.885 101.162 240.823 91.0756C248.026 76.4059 268.283 55.3264 279.962 58.0945C292.078 60.9634 280.239 82.525 280.239 82.525C280.239 82.525 280.239 82.6033 280.365 82.6594C281.13 82.7941 281.917 82.7518 282.661 82.5361C284.177 82.2367 285.659 81.8056 287.095 81.2473C287.095 81.2473 299.269 56.3686 312.716 40.0966C326.163 23.8246 353.027 -4.16959 363.557 2.61042C366.13 4.28022 364.959 10.018 361.491 16.9885C359.926 17.4709 358.339 17.8748 356.735 18.1988C358.659 15.0862 360.113 11.7195 361.054 8.20254C362.637 -0.202443 342.519 17.5152 328.14 36.589C319.492 48.0793 311.809 60.2332 305.172 72.9319C307.77 71.3914 310.248 69.6685 312.59 67.777C319.003 62.5861 325.1 57.0331 330.849 51.1462C336.364 45.6013 341.538 39.7411 346.343 33.5968C347.881 33.526 349.415 33.3727 350.936 33.1372C345.679 40.0933 339.952 46.6975 333.791 52.9057C333.28 53.401 332.77 53.9005 332.257 54.4027C326.957 59.5816 321.367 65.0425 316.448 69.088C311.643 73.0978 306.577 76.7965 301.277 80.1601C301.277 80.1601 288.644 104.904 295.537 106.496C299.555 107.437 307.502 95.5021 307.502 95.5021C307.502 95.5021 317.838 80.0707 324.11 73.0888C332.583 63.6754 339.921 58.2514 347.213 58.1056C351.487 58.0273 354.002 62.4763 354.002 62.4763L356.012 59.4391H368.38C368.38 59.4391 345.286 97.6762 343.435 100.556L343.472 100.579ZM351.222 66.757C351.373 66.4975 351.496 66.2233 351.591 65.9389C351.533 65.4913 351.318 65.0767 350.983 64.7644C350.647 64.4524 350.214 64.2619 349.753 64.2244C347.847 64.1347 345.227 64.4935 338.396 71.8786C332.718 77.9935 327.833 84.7687 323.855 92.0506C319.941 99.0322 318.355 104.232 320.605 105.577C321.337 105.943 322.179 106.027 322.972 105.812C324.5 105.454 326.222 104.064 328.85 101.094C329.834 99.9814 330.907 98.4946 332.134 96.7954L332.146 96.7795C332.447 96.3619 332.758 95.9317 333.078 95.491C337.603 89.4841 348.972 70.5673 351.222 66.7459V66.757ZM280.18 74.7811C281.33 71.8672 282.775 66.1519 279.756 63.9106C276.507 61.5235 268.27 67.1158 268.19 72.8758C268.111 78.6361 274.013 81.4042 275.427 81.7741C276.23 81.9868 276.507 81.9532 276.897 81.3256C278.145 79.2286 279.243 77.0494 280.18 74.8036V74.7811ZM273.921 85.4833C271.87 84.5587 269.958 83.3674 268.237 81.9421C266.503 80.5288 265.052 78.8152 263.954 76.888C263.859 76.7305 263.763 76.8334 263.662 76.9435C263.64 76.9666 263.619 76.9897 263.597 77.0113L263.594 77.0131C263.465 77.1397 262.952 77.6398 258.543 83.9368C254.11 90.2686 247.359 103.313 253.492 105.543C257.418 106.967 263.954 100.254 267.536 95.8048C269.961 92.7016 272.159 89.4361 274.118 86.0326C274.302 85.6516 274.118 85.5619 273.921 85.4833Z" fill="#EB2323"/>
<path d="M204.292 30.3354H192.53L185.883 40.8249H197.642L204.292 30.3354Z" fill="#EB2323"/>
<path fill-rule="evenodd" clip-rule="evenodd" d="M176.683 59.0361H180.955C180.955 59.0361 159.365 89.4843 147.157 88.0947C140.347 87.3216 142.368 79.1295 142.368 79.1295C142.368 79.1295 132.778 90.0558 123.993 87.8706C116.023 85.8759 121.168 72.9546 121.168 72.9546C121.032 73.0083 120.531 73.4781 119.736 74.223C115.219 78.4593 101.21 91.5942 90.9065 87.7248C78.2737 82.9509 84.8085 67.071 87.22 62.2971C89.2642 58.2738 91.5266 54.3516 91.5266 54.3516C91.5266 54.3516 89.5857 54.8895 88.3686 55.1586C87.1512 55.4274 85.3253 55.7748 85.3253 55.7748C85.3253 55.7748 79.3303 65.2893 75.6669 70.0296C72.0032 74.7702 56.4191 91.0869 47.2431 87.837C38.0671 84.5871 40.3526 72.0582 45.4975 62.0619C53.8582 45.9243 73.7031 26.0885 85.6927 29.0695C97.6823 32.0505 87.7713 51.18 87.7713 51.18C87.7713 51.18 90.1717 51.4827 95.9253 47.6499C98.3015 46.0722 100.892 43.7304 103.656 41.2323C110.55 35.0013 118.522 27.7959 126.933 29.0359C132.491 29.8539 137.671 35.4237 130.585 45.9915C128.288 49.3533 124.51 52.4241 121.593 49.4208C119.778 47.5716 121.363 44.1537 123.269 41.8227C124.015 40.8726 124.988 40.1163 126.103 39.6198C127.219 39.1236 128.443 38.9025 129.666 38.976C129.666 38.976 131.618 34.5942 126.646 34.6839C122.615 34.7625 112.417 43.9182 106.663 53.175C101.449 61.7031 93.4674 76.182 101.449 79.3425C108.811 82.245 122.822 66.0177 129.31 57.5118C135.799 49.0059 150.568 29.7307 162.971 28.9574C167.243 28.6885 169.781 32.4876 169.781 32.4876L171.217 30.246H183.596C183.596 30.246 160.283 68.3376 158.458 71.1951C157.022 73.4364 155.115 78.513 160.398 75.6777C165.681 72.8424 176.683 59.0361 176.683 59.0361ZM148.604 66.6228C153.611 59.8989 167.415 36.477 167.415 36.477C167.356 36.0291 167.142 35.6145 166.807 35.3025C166.473 34.9905 166.039 34.7997 165.578 34.7625C163.671 34.6728 160.502 35.3004 154.093 43.0329C147.685 50.7654 142.908 56.9178 139.347 63.3168C135.42 70.2987 133.709 75.2295 135.96 76.563C136.691 76.9239 137.534 77.0079 138.325 76.7985C139.795 76.44 141.713 75.0054 144.343 72.0468C145.583 70.6683 146.985 68.808 148.627 66.6228H148.604ZM85.5205 34.908C82.2703 32.5098 74.036 38.1132 73.9558 43.8735C73.8752 49.6335 81.4206 51.4266 82.3967 51.4716C82.6144 51.5274 82.8452 51.5118 83.0528 51.4266C83.2606 51.3414 83.4337 51.1917 83.545 51.0009C84.4285 49.3122 85.222 47.5806 85.9223 45.8121C87.0706 42.8985 88.5063 37.1829 85.4858 34.9416L85.5205 34.908ZM80.5822 55.1136C78.3413 54.4299 76.1994 53.4696 74.2082 52.2561C72.2661 51.0321 70.6831 49.3368 69.6145 47.3361C69.5146 47.1702 69.4057 47.2935 69.3034 47.4096C69.2883 47.4267 69.2732 47.4438 69.2585 47.4594C69.1438 47.5827 68.4776 48.4344 64.0561 54.7662C59.6345 61.098 53.077 74.0529 59.2214 76.2717C63.1488 77.6949 69.7525 70.9599 73.324 66.5109C76.0153 63.0381 78.5036 59.4201 80.7774 55.674C80.9265 55.293 80.7774 55.2033 80.5592 55.1361L80.5822 55.1136Z" fill="#EB2323"/>
<path d="M169.929 120C160.796 113.832 149.86 110.718 138.76 111.124C135.756 111.203 132.813 111.973 130.171 113.372C127.529 114.77 125.262 116.757 123.555 119.171C118.824 111.113 109.475 106.171 95.0164 106.283C82.7747 106.418 70.5803 109.369 59.1059 112.147C48.6854 114.668 38.8589 117.047 30.1299 117.041C12.513 117.041 -0.315014 106.238 0.10986 87.0636C0.867994 53.4438 29.9691 23.186 51.7896 9.53631C64.296 1.69166 74.758 -0.616905 81.6489 0.133939C86.6444 0.671856 92.6507 6.30879 88.861 14.6129C83.2912 26.7721 75.5967 25.7523 75.8835 19.9472C76.0034 18.4329 76.4895 16.9678 77.302 15.6723C78.1146 14.3768 79.2303 13.2879 80.5578 12.4949C81.9664 11.7465 83.5476 11.3608 85.1515 11.3742C86.3 10.4665 87.0923 3.82092 78.1346 6.00621C69.1769 8.1915 58.2666 16.787 47.9768 27.8815C37.6867 38.976 21.6776 59.9325 17.7154 81.9423C15.8665 92.1516 17.0953 110.766 41.8327 110.564C51.3699 110.488 62.9744 107.664 75.4697 104.624C90.4934 100.969 106.805 96.9999 122.361 97.116C132.282 97.0755 142.027 99.6792 150.543 104.647C157.916 109.13 166.748 115.54 169.883 119.955L169.929 120Z" fill="#EB2323"/>
</g>
<defs>
<clipPath id="clip0_77_3968">
<rect width="393" height="120" fill="white"/>
</clipPath>
</defs>
</svg>
