<svg width="267" height="43" viewBox="0 0 267 43" fill="none" xmlns="http://www.w3.org/2000/svg">
<g clip-path="url(#clip0_78_3987)">
<path fill-rule="evenodd" clip-rule="evenodd" d="M155.664 9.22783L155.657 9.22363C156.657 8.12856 157.765 6.96555 158.925 5.8466C157.514 5.15678 156.21 4.37486 154.949 3.61844C152.216 1.9794 149.682 0.460064 146.684 0.256739C144.358 0.112431 142.03 0.498224 139.875 1.38515C139.875 1.38515 138.709 -0.201052 135.12 0.312958C131.531 0.826968 120.476 5.45708 111.055 20.5562C102.539 34.2056 106.54 42.0321 112.657 41.9478C119.286 41.8555 125.591 34.4666 127.73 28.3748C129.868 22.2828 127.345 20.6324 125.407 20.789C123.264 20.9697 119.478 22.8812 117.396 27.1057C115.312 31.3303 115.312 33.9324 115.312 33.9324C116.163 33.037 117.09 32.2163 118.081 31.4788C118.972 30.7809 119.954 30.2081 121.001 29.7762C121.245 28.6847 121.61 27.6234 122.086 26.6119C122.84 25.0376 124.033 23.3992 125.506 23.0299C128.499 22.2789 127.065 27.7483 124.866 31.3142C123.684 33.2176 119.491 38.7231 115.889 38.7231C112.288 38.7231 111.6 35.2456 112.357 31.9809C113.114 28.7161 114.167 24.5879 119.431 17.0705C124.694 9.5531 130.385 5.09566 133.683 3.22837C137.067 1.30484 138.445 2.14813 138.445 2.14813C138.445 2.14813 134.123 4.80653 131.663 8.0191C129.316 11.0872 127.91 14.5366 129 16.2272C130.041 17.8375 133.699 17.8696 137.731 12.0389C141.713 6.2803 140.712 2.8549 140.712 2.8549C140.974 2.76946 141.242 2.70237 141.513 2.65411C143.455 2.39309 145.01 2.91112 147.413 4.14795C148.585 4.75135 149.736 5.52421 150.965 6.34968C152.375 7.29716 153.889 8.31419 155.657 9.22363L155.653 9.22783H155.664ZM139.35 3.30065C139.35 3.30065 136.787 4.32465 133.806 7.61753C130.826 10.9104 129.088 14.6169 130.373 15.5968C130.867 15.9702 132.003 16.0344 134.071 14.1711C135.976 12.5117 137.472 10.4321 138.44 8.0954C139.698 5.02097 139.392 3.51373 139.354 3.32121C139.352 3.30955 139.35 3.30271 139.35 3.30065Z" fill="black"/>
<path d="M160.857 11.0929L160.856 11.095C167.857 12.4844 173.99 8.13543 177.25 4.43295C178.441 3.10797 179.464 1.64206 180.299 0.0678711C178.814 1.61775 177.152 2.98715 175.348 4.14782L175.328 4.14382C172.292 6.09545 168.09 7.86638 164.053 7.47685C163.031 8.537 161.937 9.76179 160.848 11.091L160.857 11.0929Z" fill="black"/>
<path fill-rule="evenodd" clip-rule="evenodd" d="M163.324 36.0407C162.742 36.9724 162.082 38.7594 164 37.647C166.336 36.2937 169.664 31.2219 169.664 31.2219H171.171C169.798 33.3414 168.269 35.3549 166.596 37.2455C164.229 39.8757 161.341 42.2651 159.306 42.0282C156.931 41.751 157.676 38.6229 157.676 38.6229C157.676 38.6229 154.263 42.2369 151.92 41.992C148.743 41.6387 149.712 37.7032 149.712 37.7032C149.712 37.7032 146.107 42.1205 143.672 41.988C139.834 41.7672 140.8 37.0727 141.865 33.788C142.439 32.0251 142.967 30.6396 142.967 30.6396C142.967 30.6396 142.587 30.74 141.765 30.8605C141.336 30.9207 140.563 30.9649 140.563 30.9649C139.683 32.5218 138.723 34.0324 137.687 35.4906C136.41 37.1932 130.982 43.0441 127.777 41.8715C124.822 40.7873 125.799 36.2496 127.521 32.6355C130.033 27.3788 137.099 19.8253 141.172 20.8172C145.398 21.8453 141.269 29.5715 141.269 29.5715C141.269 29.5715 141.269 29.5996 141.313 29.6197C141.58 29.6679 141.854 29.6528 142.114 29.5755C142.642 29.4682 143.159 29.3137 143.66 29.1137C143.66 29.1137 147.906 20.1988 152.596 14.368C157.287 8.53716 166.656 -1.49407 170.329 0.935431C171.226 1.53377 170.818 3.58981 169.608 6.08758C169.062 6.26042 168.509 6.40518 167.949 6.52128C168.621 5.4059 169.128 4.19953 169.456 2.93927C170.008 -0.0725116 162.991 6.27632 157.976 13.1111C154.96 17.2285 152.28 21.5836 149.965 26.134C150.871 25.582 151.735 24.9646 152.552 24.2868C154.789 22.4267 156.916 20.4369 158.921 18.3274C160.844 16.3405 162.649 14.2406 164.325 12.0389C164.861 12.0135 165.396 11.9586 165.927 11.8742C164.093 14.3668 162.096 16.7333 159.947 18.9579C159.769 19.1354 159.591 19.3144 159.412 19.4943C157.563 21.3501 155.614 23.3069 153.898 24.7566C152.222 26.1934 150.455 27.5188 148.606 28.7241C148.606 28.7241 144.2 37.5908 146.604 38.1611C148.006 38.4984 150.778 34.2216 150.778 34.2216C150.778 34.2216 154.383 28.692 156.57 26.1902C159.525 22.8171 162.085 20.8735 164.628 20.8212C166.119 20.7932 166.996 22.3874 166.996 22.3874L167.697 21.299H172.011C172.011 21.299 163.956 35.0007 163.311 36.0327L163.324 36.0407ZM166.027 23.9213C166.079 23.8283 166.122 23.7301 166.155 23.6281C166.135 23.4678 166.06 23.3192 165.943 23.2073C165.826 23.0955 165.675 23.0272 165.514 23.0138C164.849 22.9816 163.936 23.1102 161.553 25.7565C159.573 27.9477 157.869 30.3755 156.481 32.9848C155.116 35.4866 154.563 37.3499 155.348 37.8318C155.603 37.9629 155.897 37.993 156.173 37.9161C156.706 37.7876 157.307 37.2897 158.224 36.2254C158.567 35.8267 158.941 35.2939 159.369 34.6851L159.373 34.6794C159.478 34.5297 159.587 34.3756 159.698 34.2176C161.277 32.0652 165.242 25.2866 166.027 23.9173V23.9213ZM141.248 26.7966C141.649 25.7524 142.153 23.7045 141.1 22.9013C139.967 22.046 137.094 24.0499 137.066 26.1139C137.038 28.178 139.097 29.1699 139.591 29.3024C139.87 29.3786 139.967 29.3666 140.103 29.1417C140.538 28.3903 140.921 27.6094 141.248 26.8047V26.7966ZM139.065 30.6315C138.35 30.3002 137.683 29.8734 137.082 29.3626C136.478 28.8562 135.972 28.2421 135.589 27.5516C135.556 27.4951 135.522 27.532 135.487 27.5715C135.479 27.5797 135.472 27.588 135.464 27.5958L135.463 27.5964C135.418 27.6418 135.239 27.821 133.702 30.0774C132.155 32.3463 129.801 37.0206 131.94 37.8196C133.309 38.3297 135.589 35.9243 136.838 34.3301C137.684 33.2181 138.451 32.048 139.134 30.8284C139.198 30.6919 139.134 30.6597 139.065 30.6315Z" fill="black"/>
<path d="M114.779 10.8701H110.677L108.358 14.6289H112.46L114.779 10.8701Z" fill="black"/>
<path fill-rule="evenodd" clip-rule="evenodd" d="M105.15 21.1546H106.64C106.64 21.1546 99.1099 32.0652 94.8519 31.5673C92.4766 31.2903 93.1816 28.3548 93.1816 28.3548C93.1816 28.3548 89.8369 32.27 86.7727 31.487C83.9928 30.7722 85.7873 26.1421 85.7873 26.1421C85.7399 26.1613 85.5653 26.3297 85.2881 26.5966C83.7123 28.1146 78.8265 32.8213 75.2326 31.4347C70.8264 29.7241 73.1057 24.0338 73.9468 22.3231C74.6598 20.8815 75.4488 19.476 75.4488 19.476C75.4488 19.476 74.7719 19.6688 74.3474 19.7652C73.9228 19.8615 73.2859 19.986 73.2859 19.986C73.2859 19.986 71.195 23.3953 69.9172 25.094C68.6394 26.7927 63.2038 32.6395 60.0034 31.4749C56.8029 30.3104 57.6001 25.8209 59.3945 22.2389C62.3106 16.4562 69.2323 9.34839 73.4141 10.4166C77.5959 11.4848 74.139 18.3395 74.139 18.3395C74.139 18.3395 74.9763 18.448 76.9831 17.0746C77.8119 16.5092 78.7155 15.6701 79.6795 14.7749C82.084 12.5421 84.8645 9.96021 87.7981 10.4045C89.7368 10.6977 91.5433 12.6935 89.0719 16.4803C88.2708 17.6849 86.9529 18.7853 85.9355 17.7091C85.3026 17.0465 85.8554 15.8218 86.5203 14.9865C86.7803 14.646 87.1198 14.375 87.5088 14.1971C87.8979 14.0193 88.3247 13.9401 88.7515 13.9664C88.7515 13.9664 89.4324 12.3963 87.6979 12.4284C86.2921 12.4566 82.7351 15.7374 80.7283 19.0544C78.9097 22.1103 76.1258 27.2986 78.9098 28.4311C81.4773 29.4711 86.3641 23.6564 88.6273 20.6084C90.8905 17.5605 96.0416 10.6535 100.368 10.3764C101.858 10.28 102.743 11.6414 102.743 11.6414L103.244 10.8382H107.561C107.561 10.8382 99.4303 24.4877 98.7934 25.5116C98.2927 26.3147 97.6278 28.1338 99.4704 27.1179C101.313 26.1019 105.15 21.1546 105.15 21.1546ZM95.3566 23.8732C97.1031 21.4638 101.918 13.0709 101.918 13.0709C101.897 12.9104 101.822 12.7619 101.706 12.6501C101.589 12.5383 101.438 12.4699 101.277 12.4566C100.612 12.4244 99.5064 12.6493 97.2713 15.4201C95.0361 18.1909 93.3699 20.3956 92.1281 22.6885C90.7582 25.1904 90.1614 26.9573 90.9465 27.4351C91.2017 27.5644 91.4957 27.5945 91.7717 27.5195C92.2843 27.391 92.9533 26.8769 93.8706 25.8168C94.3031 25.3228 94.7919 24.6562 95.3647 23.8732H95.3566ZM73.354 12.5087C72.2204 11.6494 69.3484 13.6572 69.3204 15.7214C69.2923 17.7854 71.924 18.4279 72.2645 18.444C72.3404 18.464 72.4209 18.4584 72.4933 18.4279C72.5658 18.3973 72.6262 18.3437 72.665 18.2753C72.9731 17.6702 73.2499 17.0497 73.4942 16.416C73.8947 15.372 74.3954 13.3239 73.3419 12.5208L73.354 12.5087ZM71.6316 19.7491C70.85 19.5041 70.103 19.16 69.4084 18.7251C68.7311 18.2865 68.1789 17.679 67.8062 16.9621C67.7714 16.9027 67.7334 16.9469 67.6977 16.9885C67.6924 16.9946 67.6872 17.0007 67.682 17.0063C67.642 17.0505 67.4097 17.3557 65.8675 19.6246C64.3253 21.8935 62.0382 26.5356 64.1812 27.3307C65.5511 27.8407 67.8544 25.4273 69.1 23.8331C70.0387 22.5887 70.9066 21.2922 71.6997 19.9499C71.7517 19.8133 71.6997 19.7812 71.6236 19.7571L71.6316 19.7491Z" fill="black"/>
<path d="M102.795 43C99.6091 40.7897 95.7949 39.6738 91.9235 39.8196C90.8756 39.8479 89.8492 40.1237 88.9275 40.6248C88.006 41.1258 87.2155 41.8378 86.6202 42.7029C84.9698 39.8155 81.7093 38.0446 76.6662 38.0848C72.3965 38.1332 68.1432 39.1907 64.1411 40.1859C60.5066 41.0895 57.0793 41.9418 54.0347 41.9398C47.8902 41.9398 43.4159 38.0688 43.5641 31.1978C43.8285 19.1507 53.9786 8.30831 61.5893 3.41718C65.9514 0.606179 69.6004 -0.221058 72.0038 0.0479948C73.7462 0.240748 75.8411 2.26065 74.5193 5.23629C72.5766 9.59333 69.8929 9.22791 69.9929 7.14776C70.0348 6.60512 70.2043 6.08014 70.4877 5.61592C70.7711 5.1517 71.1602 4.76149 71.6232 4.47732C72.1146 4.20917 72.666 4.07097 73.2255 4.07574C73.6261 3.75048 73.9024 1.36916 70.7781 2.15223C67.6537 2.93529 63.8484 6.01533 60.2595 9.99089C56.6704 13.9664 51.0867 21.4758 49.7047 29.3627C49.0598 33.021 49.4884 39.691 58.1165 39.6188C61.4429 39.5914 65.4904 38.5797 69.8486 37.4903C75.0887 36.1804 80.778 34.7583 86.2036 34.7999C89.6641 34.7854 93.0629 35.7184 96.0333 37.4985C98.6048 39.1047 101.685 41.4018 102.779 42.984L102.795 43Z" fill="black"/>
<path d="M24.1865 27.3789H32.8465L32.5622 25.4032H26.4377V22.9938H30.5634V20.986H26.4377V18.9379H32.446L32.7344 16.9622H24.1905L24.1865 27.3789Z" fill="black"/>
<path d="M11.3682 27.3788H13.6192V22.7729H18.9227V27.3748H21.1818V16.9942H18.9266V20.7569H13.6192V16.9902H11.3802L11.3682 27.3788Z" fill="black"/>
<path d="M0 19.0182H3.45281V27.3669H5.71196V19.0182H9.16477V16.9863H0V19.0182Z" fill="black"/>
<path d="M264.285 17.0184H266.772L262.675 23.9093V27.399H260.415V23.9535L256.277 17.0144H258.821L261.565 21.8734L264.285 17.0184Z" fill="black"/>
<path d="M252.305 24.0459V17.0184L254.503 17.0063V27.387H252.232L247.205 20.235V27.387H245.006V17.0063H247.346L252.305 24.0459Z" fill="black"/>
<path fill-rule="evenodd" clip-rule="evenodd" d="M243.026 27.391H240.651L239.79 25.074H235.244L234.382 27.379H232.023L236.144 17.0024H238.92L243.026 27.391ZM237.531 19.0062L235.98 23.1224L239.068 23.1183L237.531 19.0062Z" fill="black"/>
<path fill-rule="evenodd" clip-rule="evenodd" d="M223.039 16.9983H228.362C229.055 16.9759 229.742 17.122 230.365 17.4239C230.884 17.6817 231.314 18.0903 231.599 18.5965C231.873 19.117 232.016 19.6966 232.016 20.2852C232.016 20.8737 231.873 21.4534 231.599 21.9738C231.313 22.4805 230.883 22.8913 230.365 23.1543C229.742 23.4578 229.055 23.6052 228.362 23.584H225.298V27.3749H223.039V16.9983ZM225.314 21.5802H228.322C228.702 21.605 229.076 21.4828 229.368 21.2389C229.609 20.9801 229.743 20.6393 229.743 20.2852C229.743 19.9311 229.609 19.5902 229.368 19.3314C229.071 19.0939 228.698 18.9753 228.318 18.9982H225.314V21.5802Z" fill="black"/>
<path d="M217.002 16.9985H220.035L220.039 27.3831H217.852V19.7532L214.671 27.2224H213.162L210.018 19.942V27.367H207.83V16.9985H210.863L213.962 24.2267L217.002 16.9985Z" fill="black"/>
<path fill-rule="evenodd" clip-rule="evenodd" d="M202.691 26.8651C201.811 27.3297 200.829 27.5646 199.835 27.5477L199.823 27.5518C198.829 27.5675 197.847 27.3328 196.967 26.869C196.145 26.4289 195.464 25.7667 195 24.9576C194.533 24.105 194.287 23.1477 194.287 22.1747C194.287 21.2016 194.533 20.2444 195 19.3918C195.466 18.5825 196.149 17.9203 196.971 17.4803C197.856 17.0302 198.835 16.7957 199.827 16.7957C200.819 16.7957 201.797 17.0302 202.683 17.4803C203.517 17.9155 204.211 18.5781 204.686 19.3918C205.152 20.2441 205.396 21.2006 205.396 22.1727C205.396 23.1448 205.152 24.1012 204.686 24.9536C204.213 25.7661 203.522 26.4287 202.691 26.8651ZM198.192 25.074C198.692 25.3616 199.26 25.5086 199.836 25.4997C200.413 25.5124 200.982 25.3651 201.481 25.074C201.961 24.7962 202.355 24.3885 202.615 23.8974C202.884 23.3632 203.023 22.7731 203.023 22.1747C203.023 21.5763 202.884 20.9863 202.615 20.4519C202.357 19.957 201.964 19.5461 201.481 19.2673C200.978 18.9896 200.413 18.844 199.839 18.844C199.265 18.844 198.7 18.9896 198.197 19.2673C197.716 19.5385 197.321 19.9392 197.055 20.4239C196.777 20.9543 196.639 21.5475 196.655 22.1466C196.641 22.7455 196.779 23.3381 197.055 23.8694C197.314 24.3701 197.708 24.7876 198.192 25.074Z" fill="black"/>
<path d="M191.318 27.1499C190.559 27.4243 189.758 27.5603 188.951 27.5515L188.964 27.5636C187.917 27.5822 186.881 27.3407 185.95 26.8607C185.094 26.4187 184.374 25.7481 183.871 24.9228C183.369 24.0974 183.104 23.1493 183.104 22.1824C183.104 21.2156 183.369 20.2675 183.871 19.4421C184.374 18.6169 185.094 17.9463 185.95 17.5041C186.87 17.0293 187.892 16.7893 188.927 16.8055C189.735 16.791 190.537 16.9272 191.295 17.207C191.98 17.4581 192.59 17.8795 193.068 18.4318L191.663 19.9979C191.304 19.6225 190.878 19.3198 190.405 19.1064C189.957 18.9178 189.474 18.8221 188.987 18.8253C188.362 18.817 187.747 18.9691 187.196 19.267C186.676 19.5478 186.242 19.9641 185.939 20.4718C185.621 20.9838 185.456 21.5757 185.463 22.1785C185.454 22.7726 185.611 23.3573 185.914 23.8678C186.216 24.3782 186.655 24.7942 187.18 25.0698C187.739 25.3702 188.365 25.5223 188.999 25.5115C189.505 25.52 190.008 25.4234 190.476 25.2279C190.943 25.0323 191.364 24.7419 191.715 24.375L193.125 25.9171C192.638 26.4766 192.016 26.9012 191.318 27.1499Z" fill="black"/>
</g>
<defs>
<clipPath id="clip0_78_3987">
<rect width="267" height="43" fill="white"/>
</clipPath>
</defs>
</svg>
